# xmcd
#
# Track frame offsets:
# 150
# 21160
# 40222
# 61569
# 79542
# 105841
# 123109
# 144815
# 163448
# 183215
# 202304
# 219832
# 241114
#
# Disc length: 3443 seconds
#
#
# Revision: 0
# Processed by: cddbd v1.5.2PL0 Copyright (c) Steve Scherf et al.
# Submitted via: FreeRIP 2.52 
#
DISCID=9d0d710d
DTITLE=WINE WINE - HTA WA YA
DYEAR=2007
DGENRE=Pop/Funk
TTITLE0=Tan Ta
TTITLE1=Juliet
TTITLE2=Kant That Chat Myar
TTITLE3=Du Htaut Pi
TTITLE4=My Father
TTITLE5=Hta Wa Ya Ah Sone Hti
TTITLE6=Pyan Lar Par...Sate Pu Tae
TTITLE7=Lat Kan Mar Lar
TTITLE8=Dream In The Dream
TTITLE9=Exit Of The Mind
TTITLE10=Ah Chit Et Ka Yar
TTITLE11=Bar Ma Ma Pyit Tha Lo Nae
TTITLE12=Hta Wa Ya Ah Sone Hti
EXTD=POP FAMOUS VOCALIST IN MYANMAR
EXTT0=
EXTT1=
EXTT2=
EXTT3=
EXTT4=
EXTT5=
EXTT6=
EXTT7=
EXTT8=
EXTT9=
EXTT10=
EXTT11=
EXTT12=
PLAYORDER=
